# xmcd
#
# Track frame offsets: 
#        182
#        15865
#        29117
#        46017
#        62702
#        74432
#        89552
#        104725
#        117127
#        129290
#        141762
#
# Disc length: 2081 seconds
#
# Revision: 7
# Processed by: cddbd v1.5.2PL0 Copyright (c) Steve Scherf et al.
# Submitted via: ExactAudioCopy v1.0b1
#
DISCID=96081f0b
DTITLE=Dave Edmunds - Repeat When Necessary
DYEAR=1979
DGENRE=Rock
TTITLE0=Girls Talk
TTITLE1=Crawling From The Wreckage
TTITLE2=The Creature From The Black Lagoon
TTITLE3=Sweet Little Lisa
TTITLE4=Dynamite
TTITLE5=Queen Of Hearts
TTITLE6=Home In My Hand
TTITLE7=Goodbye Mr. Good Guy
TTITLE8=Take Me For A Little While
TTITLE9=We Were Both Wrong
TTITLE10=Bad Is Bad
EXTD=Atlantic - Swan Song\n8507-2
EXTT0=
EXTT1=
EXTT2=\n
EXTT3=
EXTT4=
EXTT5=
EXTT6=
EXTT7=
EXTT8=
EXTT9=
EXTT10=\n
PLAYORDER=
